REM DIRINDEX 1\5,1\2\6,1\2\7,1\3\8,1\3\9,1\4\10,1\4\11,1\4\12
REM DIRNAME folder01,folder02,folder03,folder04,folder05,folder06,folder07,folder08,folder09,folder10,folder11,folder12
TITLE ""
FILE "JE_DB3000_5th_4B_30.mp3" MP3
  TRACK 01 AUDIO
    TITLE "0:"
    INDEX 01 00:00:00
  TRACK 02 AUDIO
    TITLE "6:cjc026_01563"
    INDEX 01 00:00:05
  TRACK 03 AUDIO
    TITLE "0:"
    INDEX 01 00:01:03
  TRACK 04 AUDIO
    TITLE "7:cjc026_01564"
    INDEX 01 00:01:30
  TRACK 05 AUDIO
    TITLE "0:"
    INDEX 01 00:02:16
  TRACK 06 AUDIO
    TITLE "6:cjc026_01565"
    INDEX 01 00:02:42
  TRACK 07 AUDIO
    TITLE "0:"
    INDEX 01 00:03:45
  TRACK 08 AUDIO
    TITLE "7:cjc026_01566"
    INDEX 01 00:03:68
  TRACK 09 AUDIO
    TITLE "0:"
    INDEX 01 00:05:05
  TRACK 10 AUDIO
    TITLE "6:cjc026_01567"
    INDEX 01 00:05:32
  TRACK 11 AUDIO
    TITLE "0:"
    INDEX 01 00:06:41
  TRACK 12 AUDIO
    TITLE "7:cjc026_01568"
    INDEX 01 00:06:67
  TRACK 13 AUDIO
    TITLE "0:"
    INDEX 01 00:08:03
  TRACK 14 AUDIO
    TITLE "6:cjc026_01569"
    INDEX 01 00:08:30
  TRACK 15 AUDIO
    TITLE "0:"
    INDEX 01 00:09:26
  TRACK 16 AUDIO
    TITLE "7:cjc026_01570"
    INDEX 01 00:09:53
  TRACK 17 AUDIO
    TITLE "0:"
    INDEX 01 00:10:55
  TRACK 18 AUDIO
    TITLE "6:cjc026_01571"
    INDEX 01 00:11:05
  TRACK 19 AUDIO
    TITLE "0:"
    INDEX 01 00:11:58
  TRACK 20 AUDIO
    TITLE "7:cjc026_01572"
    INDEX 01 00:12:09
  TRACK 21 AUDIO
    TITLE "0:"
    INDEX 01 00:13:04
  TRACK 22 AUDIO
    TITLE "6:cjc026_01573"
    INDEX 01 00:13:32
  TRACK 23 AUDIO
    TITLE "0:"
    INDEX 01 00:14:17
  TRACK 24 AUDIO
    TITLE "7:cjc026_01574"
    INDEX 01 00:14:43
  TRACK 25 AUDIO
    TITLE "0:"
    INDEX 01 00:15:32
  TRACK 26 AUDIO
    TITLE "6:cjc026_01575"
    INDEX 01 00:15:62
  TRACK 27 AUDIO
    TITLE "0:"
    INDEX 01 00:16:53
  TRACK 28 AUDIO
    TITLE "7:cjc026_01576"
    INDEX 01 00:17:04
  TRACK 29 AUDIO
    TITLE "0:"
    INDEX 01 00:18:01
  TRACK 30 AUDIO
    TITLE "6:cjc026_01577"
    INDEX 01 00:18:29
  TRACK 31 AUDIO
    TITLE "0:"
    INDEX 01 00:19:28
  TRACK 32 AUDIO
    TITLE "7:cjc026_01578"
    INDEX 01 00:19:56
  TRACK 33 AUDIO
    TITLE "0:"
    INDEX 01 00:20:65
  TRACK 34 AUDIO
    TITLE "6:cjc026_01579"
    INDEX 01 00:21:15
  TRACK 35 AUDIO
    TITLE "0:"
    INDEX 01 00:22:19
  TRACK 36 AUDIO
    TITLE "7:cjc026_01580"
    INDEX 01 00:22:46
  TRACK 37 AUDIO
    TITLE "0:"
    INDEX 01 00:23:34
  TRACK 38 AUDIO
    TITLE "6:cjc026_01581"
    INDEX 01 00:23:59
  TRACK 39 AUDIO
    TITLE "0:"
    INDEX 01 00:24:55
  TRACK 40 AUDIO
    TITLE "7:cjc026_01582"
    INDEX 01 00:25:05
  TRACK 41 AUDIO
    TITLE "0:"
    INDEX 01 00:26:01
  TRACK 42 AUDIO
    TITLE "6:cjc026_01583"
    INDEX 01 00:26:26
  TRACK 43 AUDIO
    TITLE "0:"
    INDEX 01 00:27:24
  TRACK 44 AUDIO
    TITLE "7:cjc026_01584"
    INDEX 01 00:27:49
  TRACK 45 AUDIO
    TITLE "0:"
    INDEX 01 00:28:39
  TRACK 46 AUDIO
    TITLE "6:cjc026_01585"
    INDEX 01 00:28:66
  TRACK 47 AUDIO
    TITLE "0:"
    INDEX 01 00:30:05
  TRACK 48 AUDIO
    TITLE "7:cjc026_01586"
    INDEX 01 00:30:32
  TRACK 49 AUDIO
    TITLE "0:"
    INDEX 01 00:31:24
  TRACK 50 AUDIO
    TITLE "6:cjc026_01587"
    INDEX 01 00:31:51
  TRACK 51 AUDIO
    TITLE "0:"
    INDEX 01 00:32:62
  TRACK 52 AUDIO
    TITLE "7:cjc026_01588"
    INDEX 01 00:33:15
  TRACK 53 AUDIO
    TITLE "0:"
    INDEX 01 00:34:08
  TRACK 54 AUDIO
    TITLE "6:cjc026_01589"
    INDEX 01 00:34:36
  TRACK 55 AUDIO
    TITLE "0:"
    INDEX 01 00:35:61
  TRACK 56 AUDIO
    TITLE "7:cjc026_01590"
    INDEX 01 00:36:09
  TRACK 57 AUDIO
    TITLE "0:"
    INDEX 01 00:37:05
  TRACK 58 AUDIO
    TITLE "6:cjc026_01591"
    INDEX 01 00:37:30
  TRACK 59 AUDIO
    TITLE "0:"
    INDEX 01 00:38:30
  TRACK 60 AUDIO
    TITLE "7:cjc026_01592"
    INDEX 01 00:38:55
  TRACK 61 AUDIO
    TITLE "0:"
    INDEX 01 00:39:51
